<?xml version="1.0" encoding="UTF-8"?>
<svg width="600px" height="600px" viewBox="0 0 600 600" version="1.1" xmlns="http://www.w3.org/2000/svg" xmlns:xlink="http://www.w3.org/1999/xlink">
    <title>assets/icon</title>
    <g id="/assets/icon" stroke="none" stroke-width="1" fill="none" fill-rule="evenodd">
        <g id="Eeve-rgb-main-black" transform="translate(1.000000, 214.000000)" fill="#000000" fill-rule="nonzero">
            <path d="M207.844474,80.945592 C207.118871,75.7667314 203.879569,72.2968947 194.628124,68.1797005 C192.50959,29.928009 160.848288,-0.0035465653 122.508314,0 L85.502533,0 C47.1677391,0.0094529664 15.5139605,29.933896 13.382723,68.1797005 C4.15719219,72.2968947 0.943805036,75.9479915 0.192287074,80.945592 C-0.714717364,87.3673792 1.61757976,109.869529 6.54131814,136.644238 C7.7074667,143.014237 13.9010113,145.603667 20.4314432,147.00196 C27.5642903,158.421216 39.218637,166.272617 52.4875715,168.597809 C86.5555348,174.467397 121.377569,174.467397 155.445532,168.597809 C168.707456,166.271998 180.35352,158.419829 187.475746,147.00196 C194.083921,145.551879 200.225637,142.962448 201.391786,136.644238 C206.315524,109.81774 208.647821,87.3673792 207.844474,80.945592 Z M179.339069,95.0579873 L179.339069,121.444282 C179.420405,137.051234 168.293557,150.47165 152.931834,153.294275 C136.802527,156.119014 120.458334,157.540941 104.083167,157.540941 C87.7337701,157.540941 71.4153998,156.118935 55.3122425,153.294275 C39.8377549,150.581243 28.574101,137.116911 28.6459631,121.418388 L28.6459631,81.8518926 C28.5739096,66.1840425 39.7769844,52.7289422 55.2085848,49.950111 C87.4771245,44.3049839 120.481894,44.3049839 152.750433,49.950111 C168.112493,52.7553635 179.263787,66.143977 179.234963,81.7483154 L179.339069,95.0579873 Z" id="Shape"></path>
            <circle id="Oval" cx="63" cy="112" r="18"></circle>
            <path d="M155.979316,118.649808 C156.938252,118.669045 157.886582,118.453848 158.735525,118.024364 C161.686594,116.566667 162.850738,113.083218 161.335723,110.243836 C156.907714,102.102367 148.147312,97 138.596994,97 C129.046676,97 120.286274,102.102367 115.858265,110.243836 C114.707739,112.085689 114.71439,114.389662 115.875534,116.225337 C117.036677,118.061012 119.160545,119.125219 121.38945,118.988197 C123.618355,118.851174 125.584185,117.535552 126.493074,115.572622 C128.844037,111.208425 133.527056,108.468763 138.635997,108.468763 C143.744938,108.468763 148.427957,111.208425 150.77892,115.572622 C151.805146,117.428909 153.794521,118.606066 155.979316,118.649808 Z" id="Path"></path>
            <polygon id="Path" points="406.583584 67.1262136 352.007007 67.1262136 352.007007 90.9708738 396.225225 90.9708738 396.225225 112.071197 352.007007 112.071197 352.007007 136.873786 407 136.873786 407 158 329 158 329 46 398.671672 46"></polygon>
            <polygon id="Path" points="407 46 431.481382 46 460.34826 120.520092 489.447311 46 513 46 470.357508 158 450.390606 158"></polygon>
            <polygon id="Path" points="598.583584 67.1262136 544.007007 67.1262136 544.007007 90.9708738 588.225225 90.9708738 588.225225 112.071197 544.007007 112.071197 544.007007 136.873786 599 136.873786 599 158 521 158 521 46 590.671672 46"></polygon>
            <polygon id="Path" points="241 46 318.843844 46 318.843844 67.1262136 264.007007 67.1262136 264.007007 90.9708738 308.225225 90.9708738 308.225225 112.071197 264.007007 112.071197 264.007007 136.873786 319 136.873786 319 158 241 158"></polygon>
        </g>
    </g>
</svg>