<?xml version="1.0" encoding="UTF-8" standalone="no"?>
<svg
   width="324"
   height="280"
   viewBox="0 0 324 280"
   fill="none"
   version="1.1"
   id="svg146"
   sodipodi:docname="WillowLineDrawing6ThicWithEyesColoured.svg"
   inkscape:version="1.1 (c4e8f9e, 2021-05-24)"
   inkscape:export-filename="/Users/tixhyl/Downloads/WillowLineDrawing.png"
   inkscape:export-xdpi="300"
   inkscape:export-ydpi="300"
   xmlns:inkscape="http://www.inkscape.org/namespaces/inkscape"
   xmlns:sodipodi="http://sodipodi.sourceforge.net/DTD/sodipodi-0.dtd"
   xmlns="http://www.w3.org/2000/svg"
   xmlns:svg="http://www.w3.org/2000/svg">
  <sodipodi:namedview
     id="namedview148"
     pagecolor="#ffffff"
     bordercolor="#666666"
     borderopacity="1.0"
     inkscape:pageshadow="2"
     inkscape:pageopacity="0.0"
     inkscape:pagecheckerboard="0"
     showgrid="false"
     inkscape:zoom="0.74438307"
     inkscape:cx="273.38075"
     inkscape:cy="83.962147"
     inkscape:window-width="1680"
     inkscape:window-height="937"
     inkscape:window-x="0"
     inkscape:window-y="25"
     inkscape:window-maximized="1"
     inkscape:current-layer="svg146" />
  <path
     d="m 55.883393,138.61168 -18.537693,-0.304 c -22.223316,0 -30.3882353,27.6215 -31.4238664,56.26362 -1.035631,28.64212 6.6039634,57.90017 23.2089354,58.41556 l 39.118435,1.1657"
     fill="#0A1523"
     id="path6"
     style="fill:none;stroke:#000000;stroke-width:8;stroke-miterlimit:4;stroke-dasharray:none"
     sodipodi:nodetypes="ccscc" />
  <path
     d="m 89.633462,239.65475 c -4.450258,10.02128 -11.472949,14.49781 -21.384258,14.49781 -16.609933,-0.50013 -24.249527,-29.77345 -23.213896,-58.41557 0.604734,-16.72495 4.669624,-34.09346 10.845233,-45.03713"
     fill="#172C3B"
     id="path8"
     style="fill:none;stroke:#000000;stroke-width:8;stroke-miterlimit:4;stroke-dasharray:none"
     sodipodi:nodetypes="ccsc" />
  <path
     d="M 314.55119,164.18064 V 58.940622 c 0,-8.556112 -3.39781,-16.761881 -9.44768,-22.812523 -6.04989,-6.050644 -14.25552,-9.450488 -22.81113,-9.451759 H 121.1154 c 0,0 -36.841394,1.000635 -57.659139,9.760869 -3.946547,1.6508 -7.317121,4.431149 -9.68846,7.991593 -2.371339,3.560571 -3.637564,7.742421 -3.639472,12.020349 v 57.233969 c 0.01998,3.62051 0.905064,7.18248 2.581571,10.39194 2.113258,4.24154 3.180322,8.92847 3.111857,13.66759 l 1.045558,83.86094 c 0.105115,8.06439 5.813559,15.0878 13.753226,16.50928 0.270178,0.0497 0.545437,0.0903 0.825527,0.1298 11.221936,1.606 120.637702,4.67803 130.688592,5.14888 5.43323,0.25386 15.16903,0.64231 25.51519,0.39167"
     fill="url(#paint1_linear_1493_8093)"
     id="path12"
     style="fill:none;stroke:#000000;stroke-width:8;stroke-miterlimit:4;stroke-dasharray:none"
     sodipodi:nodetypes="cssccccccccccccc" />
  <path
     d="m 227.85864,243.10235 c -2.89479,0.26325 -5.84678,0.5029 -8.84947,0.73017 0,0 -3.60143,-63.85514 0,-85.62926 3.60269,-21.77415 5.4034,-26.42354 31.96993,-31.80587 25.07394,-5.0802 35.50707,4.44267 40.19593,15.81446"
     fill="url(#paint2_linear_1493_8093)"
     id="path14"
     style="fill:none;stroke:#000000;stroke-width:8;stroke-miterlimit:4;stroke-dasharray:none"
     sodipodi:nodetypes="ccccc" />
  <path
     d="m 294.63521,141.98545 -44.24659,-0.59557 c -17.311,-0.53576 -27.04629,28.77702 -28.12671,58.62555 -1.08171,29.84726 6.87833,60.33081 24.18424,60.86657 l 43.83552,1.21532"
     fill="#0A1523"
     id="path24"
     style="fill:none;stroke:#000000;stroke-width:8;stroke-miterlimit:4;stroke-dasharray:none"
     sodipodi:nodetypes="ccccc" />
  <path
     d="m 290.28167,262.09732 c -17.30463,-0.53067 -25.26466,-31.01931 -24.18423,-60.86657 1.08042,-29.84725 11.22676,-59.78106 28.5174,-59.2453 17.29064,0.53577 25.26467,31.01804 24.18425,60.87166 -1.08043,29.85236 -11.2115,59.80015 -28.51742,59.24021 z"
     fill="#172C3B"
     id="path26"
     style="fill:none;stroke:#000000;stroke-width:8;stroke-miterlimit:4;stroke-dasharray:none" />
  <path
     d="m 289.24579,203.12182 c -0.36523,10.03562 -4.93254,18.04528 -10.20105,17.88111 -2.76661,-0.0853 -5.16798,-2.38228 -6.76889,-6.00407 -0.2647,-4.35224 -0.3296,-8.90047 -0.16036,-13.57849 0.13618,-3.65105 0.40088,-7.2283 0.79666,-10.68083 1.8707,-3.80758 4.54694,-6.1835 7.44844,-6.09315 5.26342,0.15908 9.24663,8.42962 8.8852,18.47543 z"
     fill="#1F3345"
     id="path30"
     style="fill:none;stroke:#000000;stroke-width:8;stroke-miterlimit:4;stroke-dasharray:none" />
  <path
     d="m 50.034548,107.82589 c 1.865239,2.18325 4.324687,3.8506 7.208052,4.69154 0.375159,0.11071 0.760371,0.20997 1.150674,0.29524 7.844735,1.71671 135.405946,12.47262 173.523746,-2.28175 38.11781,-14.753232 32.27407,-31.047942 31.96866,-48.258282 -0.2893,-16.370256 -0.42037,-33.996361 -38.77581,-35.645211"
     fill="#0A1522"
     id="path32"
     style="fill:none;stroke:#000000;stroke-width:8;stroke-miterlimit:4;stroke-dasharray:none"
     sodipodi:nodetypes="cccccc" />
  <path
     d="m 98.88203,91.129949 c 8.84831,0 16.0206,-7.1723 16.0206,-16.01958 0,-8.847408 -7.17229,-16.019581 -16.0206,-16.019581 -8.847025,0 -16.019324,7.172173 -16.019324,16.019581 0,8.84728 7.172299,16.01958 16.019324,16.01958 z"
     fill="#2886D5"
     id="path34"
     style="fill:#000000;stroke:#000000;stroke-width:8;stroke-miterlimit:4;stroke-dasharray:none" />
  <path
     d="m 182.30775,84.821102 c 0.7012,0.02608 1.40113,-0.0862 2.05905,-0.330619 0.65793,-0.244339 1.26114,-0.615934 1.77526,-1.093535 0.51412,-0.477603 0.929,-1.051922 1.22169,-1.689996 0.29269,-0.638075 0.45557,-1.327563 0.4823,-2.028887 0.0267,-0.843343 -0.14507,-1.681341 -0.50012,-2.446548 -1.76635,-3.802363 -4.54314,-7.045933 -8.02876,-9.375531 -3.48561,-2.329598 -7.54517,-3.655633 -11.73452,-3.832777 -4.18808,-0.177145 -8.34436,0.801219 -12.0145,2.828196 -3.67014,2.026978 -6.71162,5.024301 -8.7923,8.664156 -0.65538,1.222193 -0.80936,2.651562 -0.42886,3.985234 0.38177,1.333543 1.26623,2.4664 2.46881,3.158306 1.20132,0.691779 2.62535,0.888139 3.97048,0.547339 1.34385,-0.340798 2.50318,-1.191904 3.22982,-2.372738 1.1097,-1.93586 2.72971,-3.529775 4.68312,-4.607655 1.9547,-1.077882 4.16646,-1.598244 6.39603,-1.504199 2.22957,0.09392 4.38915,0.798549 6.24586,2.037031 1.85543,1.238354 3.33545,2.962964 4.27843,4.985359 0.41741,0.898701 1.07661,1.662889 1.90506,2.206539 0.82846,0.543649 1.79181,0.844994 2.78315,0.870325 z"
     fill="#2886D5"
     id="path36"
     style="fill:#000000;stroke:#000000;stroke-width:8;stroke-miterlimit:4;stroke-dasharray:none" />
  <defs
     id="defs144">
    <filter
       id="filter0_f_1493_8093"
       x="0.670776"
       y="94.7885"
       width="450.207"
       height="184.636"
       filterUnits="userSpaceOnUse"
       color-interpolation-filters="sRGB">
      <feFlood
         flood-opacity="0"
         result="BackgroundImageFix"
         id="feFlood42" />
      <feBlend
         mode="normal"
         in="SourceGraphic"
         in2="BackgroundImageFix"
         result="shape"
         id="feBlend44" />
      <feGaussianBlur
         stdDeviation="30"
         result="effect1_foregroundBlur_1493_8093"
         id="feGaussianBlur46" />
    </filter>
    <filter
       id="filter1_f_1493_8093"
       x="48.2737"
       y="147.834"
       width="214.739"
       height="104.196"
       filterUnits="userSpaceOnUse"
       color-interpolation-filters="sRGB">
      <feFlood
         flood-opacity="0"
         result="BackgroundImageFix"
         id="feFlood49" />
      <feBlend
         mode="normal"
         in="SourceGraphic"
         in2="BackgroundImageFix"
         result="shape"
         id="feBlend51" />
      <feGaussianBlur
         stdDeviation="20"
         result="effect1_foregroundBlur_1493_8093"
         id="feGaussianBlur53" />
    </filter>
    <filter
       id="filter2_f_1493_8093"
       x="50.1578"
       y="6.88892"
       width="249.744"
       height="165.575"
       filterUnits="userSpaceOnUse"
       color-interpolation-filters="sRGB">
      <feFlood
         flood-opacity="0"
         result="BackgroundImageFix"
         id="feFlood56" />
      <feBlend
         mode="normal"
         in="SourceGraphic"
         in2="BackgroundImageFix"
         result="shape"
         id="feBlend58" />
      <feGaussianBlur
         stdDeviation="20"
         result="effect1_foregroundBlur_1493_8093"
         id="feGaussianBlur60" />
    </filter>
    <filter
       id="filter3_f_1493_8093"
       x="29.378"
       y="0.523918"
       width="236.906"
       height="146.735"
       filterUnits="userSpaceOnUse"
       color-interpolation-filters="sRGB">
      <feFlood
         flood-opacity="0"
         result="BackgroundImageFix"
         id="feFlood63" />
      <feBlend
         mode="normal"
         in="SourceGraphic"
         in2="BackgroundImageFix"
         result="shape"
         id="feBlend65" />
      <feGaussianBlur
         stdDeviation="30"
         result="effect1_foregroundBlur_1493_8093"
         id="feGaussianBlur67" />
    </filter>
    <linearGradient
       id="paint0_linear_1493_8093"
       x1="125.437"
       y1="200.354"
       x2="348.298"
       y2="134.24"
       gradientUnits="userSpaceOnUse">
      <stop
         stop-color="#444E5C"
         id="stop70" />
      <stop
         offset="0.27"
         stop-color="#444E5C"
         stop-opacity="0.97"
         id="stop72" />
      <stop
         offset="0.47"
         stop-color="#444E5C"
         stop-opacity="0.86"
         id="stop74" />
      <stop
         offset="0.66"
         stop-color="#444E5C"
         stop-opacity="0.68"
         id="stop76" />
      <stop
         offset="0.83"
         stop-color="#444E5C"
         stop-opacity="0.43"
         id="stop78" />
      <stop
         offset="1"
         stop-color="#444E5C"
         stop-opacity="0.1"
         id="stop80" />
    </linearGradient>
    <linearGradient
       id="paint1_linear_1493_8093"
       x1="83.7767"
       y1="169.457"
       x2="585.744"
       y2="-56.1788"
       gradientUnits="userSpaceOnUse">
      <stop
         stop-color="white"
         id="stop83" />
      <stop
         offset="0.17"
         stop-color="#FCFCFC"
         id="stop85" />
      <stop
         offset="0.32"
         stop-color="#F1F2F3"
         id="stop87" />
      <stop
         offset="0.46"
         stop-color="#DFE1E3"
         id="stop89" />
      <stop
         offset="0.59"
         stop-color="#C6C9CD"
         id="stop91" />
      <stop
         offset="0.72"
         stop-color="#A5AAB1"
         id="stop93" />
      <stop
         offset="0.85"
         stop-color="#7D848E"
         id="stop95" />
      <stop
         offset="0.97"
         stop-color="#4F5865"
         id="stop97" />
      <stop
         offset="1"
         stop-color="#444E5C"
         id="stop99" />
    </linearGradient>
    <linearGradient
       id="paint2_linear_1493_8093"
       x1="240.583"
       y1="198.019"
       x2="235.26"
       y2="120.665"
       gradientUnits="userSpaceOnUse">
      <stop
         stop-color="#444E5C"
         stop-opacity="0"
         id="stop102" />
      <stop
         offset="0.29"
         stop-color="#444E5C"
         stop-opacity="0.09"
         id="stop104" />
      <stop
         offset="0.75"
         stop-color="#444E5C"
         stop-opacity="0.34"
         id="stop106" />
      <stop
         offset="1"
         stop-color="#444E5C"
         stop-opacity="0.5"
         id="stop108" />
    </linearGradient>
    <linearGradient
       id="paint3_linear_1493_8093"
       x1="158.075"
       y1="179.95"
       x2="151.852"
       y2="226.36"
       gradientUnits="userSpaceOnUse">
      <stop
         stop-color="#444E5C"
         stop-opacity="0"
         id="stop111" />
      <stop
         offset="0.25"
         stop-color="#444E5C"
         stop-opacity="0.04"
         id="stop113" />
      <stop
         offset="0.46"
         stop-color="#444E5C"
         stop-opacity="0.15"
         id="stop115" />
      <stop
         offset="0.66"
         stop-color="#444E5C"
         stop-opacity="0.33"
         id="stop117" />
      <stop
         offset="0.84"
         stop-color="#444E5C"
         stop-opacity="0.59"
         id="stop119" />
      <stop
         offset="1"
         stop-color="#444E5C"
         stop-opacity="0.9"
         id="stop121" />
    </linearGradient>
    <linearGradient
       id="paint4_linear_1493_8093"
       x1="179.108"
       y1="41.6608"
       x2="172.547"
       y2="136.006"
       gradientUnits="userSpaceOnUse">
      <stop
         stop-color="#444E5C"
         stop-opacity="0"
         id="stop124" />
      <stop
         offset="0.36"
         stop-color="#444E5C"
         stop-opacity="0.22"
         id="stop126" />
      <stop
         offset="1"
         stop-color="#444E5C"
         stop-opacity="0.7"
         id="stop128" />
    </linearGradient>
    <linearGradient
       id="paint5_linear_1493_8093"
       x1="97.7526"
       y1="96.1691"
       x2="195.903"
       y2="52.0514"
       gradientUnits="userSpaceOnUse">
      <stop
         stop-color="white"
         id="stop131" />
      <stop
         offset="0.11"
         stop-color="#F7F7F8"
         id="stop133" />
      <stop
         offset="0.28"
         stop-color="#E0E1E4"
         id="stop135" />
      <stop
         offset="0.49"
         stop-color="#BABEC3"
         id="stop137" />
      <stop
         offset="0.73"
         stop-color="#878D96"
         id="stop139" />
      <stop
         offset="1"
         stop-color="#444E5C"
         id="stop141" />
    </linearGradient>
  </defs>
</svg>
