<?xml version="1.0" encoding="UTF-8"?>
<svg width="600px" height="600px" viewBox="0 0 600 600" version="1.1" xmlns="http://www.w3.org/2000/svg" xmlns:xlink="http://www.w3.org/1999/xlink">
    <title>drivers/YOUR_DRIVER_ID/assets/icon</title>
    <g id="/drivers/YOUR_DRIVER_ID/assets/icon" stroke="none" stroke-width="1" fill="none" fill-rule="evenodd">
        <g id="Eeve-rgb-icon-main-black" transform="translate(0.000000, 50.000000)" fill="#000000" fill-rule="nonzero">
            <circle id="Oval" cx="182" cy="325" r="52"></circle>
            <path d="M450.831087,344.998359 C456.837819,344.964837 462.395379,341.816259 465.505515,336.684715 C468.61565,331.553171 468.83129,325.176301 466.0749,319.846948 C453.397395,295.370783 428.106069,280 400.510112,280 C372.914156,280 347.62283,295.370783 334.945324,319.846948 C332.105159,325.294914 332.391399,331.842064 335.696221,337.022149 C339.001043,342.202233 344.822366,345.228275 350.967353,344.960392 C357.112341,344.69251 362.647423,341.171402 365.487588,335.723435 C372.254311,322.709788 385.716355,314.542867 400.400838,314.542867 C415.08532,314.542867 428.547364,322.709788 435.314087,335.723435 C438.311934,341.498149 444.317799,345.088015 450.831087,344.998359 L450.831087,344.998359 Z" id="Path"></path>
            <path d="M599.443215,233.450611 C597.316408,218.652529 587.991177,208.533253 561.269755,196.564217 C555.219893,86.3560117 463.913573,0.0658815829 353.278929,0 L246.829508,0 C136.152738,0.0081267585 44.7817983,86.3140686 38.7296152,196.564217 C12.0627264,208.533253 2.79202886,218.652529 0.556154755,233.450611 C-2.06145396,251.893807 4.64616837,316.689817 18.8794158,393.835696 C22.2604937,412.224488 40.1474865,419.623528 58.9615492,423.812691 C79.5961551,456.767529 113.302066,479.415831 151.668524,486.106084 C200.665939,494.659084 250.31242,498.973095 300.054218,499 C349.832441,498.979364 399.515685,494.665329 448.548979,486.106084 C486.915437,479.415831 520.621349,456.767529 541.255955,423.812691 C560.070017,419.623528 577.95701,412.224488 581.338088,393.835696 C595.353201,316.689817 602.060824,251.893807 599.443215,233.450611 Z M517.262243,274.090929 L517.262243,350.257523 C517.472491,395.278656 485.302788,433.974513 440.914287,442.092673 C394.39865,450.157418 347.266958,454.16225 300.054218,454.063556 C252.888164,454.063556 205.811565,449.967129 159.35775,441.82065 C114.96925,433.702489 82.7995465,395.006632 83.0097946,349.985499 L83.0097946,235.735608 C82.7995465,190.714475 114.96925,152.018618 159.35775,143.900458 C252.441584,127.57404 347.666853,127.57404 440.750687,143.900458 C485.139187,152.018618 517.30889,190.714475 517.097608,235.735608 L517.262243,274.090929 Z" id="Shape"></path>
        </g>
    </g>
</svg>